{
    "asset" : {
        "generator" : "Khronos glTF Blender I/O v0.9.36",
        "version" : "2.0"
    },
    "scene" : 0,
    "scenes" : [
        {
            "name" : "Scene",
            "nodes" : [
                0
            ]
        }
    ],
    "nodes" : [
        {
            "mesh" : 0,
            "name" : "ROADWORKS_PREPARE-TO-STOP",
            "rotation" : [
                0.7071068286895752,
                0,
                0,
                0.7071067094802856
            ]
        }
    ],
    "materials" : [
        {
            "doubleSided" : true,
            "name" : "backing",
            "pbrMetallicRoughness" : {
                "baseColorFactor" : [
                    0.67843097448349,
                    0.67843097448349,
                    0.67843097448349,
                    1
                ],
                "metallicFactor" : 0,
                "roughnessFactor" : 1
            }
        },
        {
            "doubleSided" : true,
            "name" : "prep_stop",
            "pbrMetallicRoughness" : {
                "baseColorTexture" : {
                    "index" : 0,
                    "texCoord" : 0
                },
                "metallicFactor" : 0,
                "roughnessFactor" : 1
            }
        },
        {
            "doubleSided" : true,
            "name" : "stands",
            "pbrMetallicRoughness" : {
                "baseColorFactor" : [
                    0.1294119954109192,
                    0.1294119954109192,
                    0.1294119954109192,
                    1
                ],
                "metallicFactor" : 0,
                "roughnessFactor" : 1
            }
        }
    ],
    "meshes" : [
        {
            "name" : "ROADWORKS_PREPARE-TO-STOP",
            "primitives" : [
                {
                    "attributes" : {
                        "POSITION" : 0,
                        "NORMAL" : 1,
                        "TEXCOORD_0" : 2
                    },
                    "indices" : 3,
                    "material" : 0
                },
                {
                    "attributes" : {
                        "POSITION" : 4,
                        "NORMAL" : 5,
                        "TEXCOORD_0" : 6
                    },
                    "indices" : 7,
                    "material" : 1
                },
                {
                    "attributes" : {
                        "POSITION" : 8,
                        "NORMAL" : 9,
                        "TEXCOORD_0" : 10
                    },
                    "indices" : 11,
                    "material" : 2
                }
            ]
        }
    ],
    "textures" : [
        {
            "source" : 0
        }
    ],
    "images" : [
        {
            "bufferView" : 8,
            "mimeType" : "image/jpeg",
            "name" : "prep_stop"
        }
    ],
    "accessors" : [
        {
            "bufferView" : 0,
            "componentType" : 5126,
            "count" : 12,
            "max" : [
                1.1832000017166138,
                0.004999999888241291,
                -0.4012419879436493
            ],
            "min" : [
                -1.1724499464035034,
                0.004999999888241291,
                -2.108649969100952
            ],
            "type" : "VEC3"
        },
        {
            "bufferView" : 1,
            "componentType" : 5126,
            "count" : 12,
            "type" : "VEC3"
        },
        {
            "bufferView" : 2,
            "componentType" : 5126,
            "count" : 12,
            "type" : "VEC2"
        },
        {
            "bufferView" : 3,
            "componentType" : 5123,
            "count" : 30,
            "type" : "SCALAR"
        },
        {
            "bufferView" : 4,
            "componentType" : 5126,
            "count" : 240,
            "max" : [
                1.2466800212860107,
                0.029999999329447746,
                -0.4012419879436493
            ],
            "min" : [
                -1.213320016860962,
                -0.029999999329447746,
                -2.108649969100952
            ],
            "type" : "VEC3"
        },
        {
            "bufferView" : 5,
            "componentType" : 5126,
            "count" : 240,
            "type" : "VEC3"
        },
        {
            "bufferView" : 6,
            "componentType" : 5126,
            "count" : 240,
            "type" : "VEC2"
        },
        {
            "bufferView" : 7,
            "componentType" : 5123,
            "count" : 402,
            "type" : "SCALAR"
        },
        {
            "bufferView" : 9,
            "componentType" : 5126,
            "count" : 96,
            "max" : [
                1.046679973602295,
                0.311722993850708,
                1.127989970827734e-17
            ],
            "min" : [
                -1.0024499893188477,
                -0.311722993850708,
                -0.4012419879436493
            ],
            "type" : "VEC3"
        },
        {
            "bufferView" : 10,
            "componentType" : 5126,
            "count" : 96,
            "type" : "VEC3"
        },
        {
            "bufferView" : 11,
            "componentType" : 5126,
            "count" : 96,
            "type" : "VEC2"
        },
        {
            "bufferView" : 12,
            "componentType" : 5123,
            "count" : 168,
            "type" : "SCALAR"
        }
    ],
    "bufferViews" : [
        {
            "buffer" : 0,
            "byteLength" : 144,
            "byteOffset" : 0
        },
        {
            "buffer" : 0,
            "byteLength" : 144,
            "byteOffset" : 144
        },
        {
            "buffer" : 0,
            "byteLength" : 96,
            "byteOffset" : 288
        },
        {
            "buffer" : 0,
            "byteLength" : 60,
            "byteOffset" : 384
        },
        {
            "buffer" : 0,
            "byteLength" : 2880,
            "byteOffset" : 444
        },
        {
            "buffer" : 0,
            "byteLength" : 2880,
            "byteOffset" : 3324
        },
        {
            "buffer" : 0,
            "byteLength" : 1920,
            "byteOffset" : 6204
        },
        {
            "buffer" : 0,
            "byteLength" : 804,
            "byteOffset" : 8124
        },
        {
            "buffer" : 0,
            "byteLength" : 447902,
            "byteOffset" : 8928
        },
        {
            "buffer" : 0,
            "byteLength" : 1152,
            "byteOffset" : 456832
        },
        {
            "buffer" : 0,
            "byteLength" : 1152,
            "byteOffset" : 457984
        },
        {
            "buffer" : 0,
            "byteLength" : 768,
            "byteOffset" : 459136
        },
        {
            "buffer" : 0,
            "byteLength" : 336,
            "byteOffset" : 459904
        }
    ],
    "buffers" : [
        {
            "byteLength" : 460240,
            "uri" : "data:application/octet-stream;base64,"
        }
    ]
}
